<svg width="64" height="38" viewBox="0 0 64 38" fill="none" xmlns="http://www.w3.org/2000/svg">
<path d="M64 36.1674C61.672 36.7594 60.232 36.1934 58.94 34.2534L49.752 21.5414L48.424 19.7814L37.694 34.2954C36.468 36.0414 35.182 36.8014 32.894 36.1834L46.634 17.7394L33.842 1.07941C36.042 0.65141 37.562 0.869409 38.912 2.83941L48.442 15.7094L58.042 2.90941C59.272 1.16341 60.594 0.49941 62.802 1.14341L57.842 7.71941L51.122 16.4694C50.322 17.4694 50.432 18.1534 51.168 19.1194L64 36.1674ZM0.016 17.4314L1.14 11.9034C4.2 0.96341 16.74 -3.58259 25.388 3.17741C30.442 7.15341 31.698 12.7774 31.448 19.0774H2.96C2.532 30.4174 10.694 37.2614 21.1 33.7694C24.75 32.5434 26.9 29.6854 27.976 26.1094C28.522 24.3174 29.426 24.0374 31.11 24.5494C30.25 29.0214 28.31 32.7574 24.21 35.0954C18.084 38.5954 9.34 37.4634 4.74 32.5994C2 29.7774 0.868 26.2014 0.36 22.3774C0.28 21.7454 0.12 21.1434 0 20.5374C0.0106667 19.5027 0.016 18.4681 0.016 17.4334V17.4314ZM3.012 16.6714H28.756C28.588 8.47141 23.482 2.64741 16.504 2.59741C8.844 2.53741 3.344 8.22341 3.012 16.6714Z" fill="white"/>
</svg>
